<?xml version="1.0" encoding="utf-8"?>
<svg version="1.1" id="Réteg_1" xmlns="http://www.w3.org/2000/svg" xmlns:xlink="http://www.w3.org/1999/xlink" x="0px" y="0px"
	 viewBox="0 0 14 14" enable-background="new 0 0 14 14" xml:space="preserve">
<path fill="#999999" d="M7.193,0C10.966,0,14,3.257,14,7.032c0,1.95-1.067,3.874-2.056,4.847c-1.05,1.034-2.782,2.056-4.847,2.056
	c-1.047,0-1.883-0.157-2.635-0.461c-0.59-0.239-1.429-0.869-1.429-1.635v-0.484c0-0.287,0.419-0.865,0.419-0.871
	c0-0.183-0.161-0.475-0.161-0.871V9.226c0-0.428,0.195-0.884,0.226-1.258L3.581,7.71c0.008,0.002,0.015,0.004,0.022,0.006
	l0.238-0.781c-0.001-0.01-0.002-0.021-0.002-0.031l0.068-0.185l0.061-0.17c0.007-0.001,0.013-0.001,0.02-0.002l0.185-0.392
	C4.167,6.146,4.163,6.137,4.161,6.129C4.304,5.519,5.3,4.093,5.658,3.562C6.15,2.834,6.85,1.871,8.032,1.871h0.323
	c0.206,0,0.246,0.064,0.452,0.064c0,1.271-0.31,1.764-0.742,2.581c-0.931,0-1.068,0.187-1.387,0.806
	C6.442,5.779,6.158,6.229,5.903,6.71H5.876L5.645,7.355L5.518,7.912C5.517,7.931,5.516,7.949,5.516,7.968v0.452
	c0,0.283,0.289,0.466,0.387,0.613c-0.085,0.364-0.448,0.983-0.65,1.253c-0.146,0.194-0.737,0.876-0.995,0.876
	c-0.089,0-0.34-0.269-0.419-0.323c-0.107,0.202-0.258,0.37-0.258,0.677c0,1.264,1.76,1.774,3.097,1.774h0.548
	c0.955,0,1.826-0.3,2.473-0.624c0.39-0.195,0.629-0.347,0.972-0.576c0.332-0.221,0.541-0.47,0.832-0.684
	c0.367-0.269,1.064-1.323,1.258-1.807c0.296-0.735,0.529-1.519,0.529-2.535V6.935c0-1.901-0.89-3.549-1.847-4.508
	c-0.976-0.978-2.59-1.782-4.54-1.782c-3.34,0-6.194,2.673-6.194,5.968v0.516c0,0.677,0.134,1.57,0.333,2.054
	c0.123,0.302,0.222,0.551,0.383,0.81c0.045,0.072,0.445,0.714,0.445,0.716c0,0.18-0.1,0.355-0.29,0.355
	c-0.366,0-1.014-1.349-1.161-1.71C0.169,8.743,0,7.768,0,6.903c0-2.017,0.933-3.787,1.944-4.798C2.938,1.111,4.587,0,6.548,0H7.193
	L7.193,0z M6.645,9.839c0-0.288-0.293-0.544-0.484-0.645c-0.052,0.622-1.057,1.998-1.548,2.129c0.037,0.14,0.424,0.29,0.613,0.29
	h0.097c0.538,0,1.323-1.073,1.323-1.71V9.839L6.645,9.839z M9.161,2.065v0.355c0,0.918-0.436,1.64-0.807,2.194
	c0.096,0.046,0.286,0.129,0.419,0.129h0.258c0.513,0,0.871-1.298,0.871-1.903C9.903,2.448,9.488,2.092,9.161,2.065z"/>
</svg>
