<?xml version="1.0" encoding="utf-8"?>
<svg version="1.1" id="Réteg_1" xmlns="http://www.w3.org/2000/svg" xmlns:xlink="http://www.w3.org/1999/xlink" x="0px" y="0px"
	 viewBox="0 0 14 14" enable-background="new 0 0 14 14" xml:space="preserve">
<g>
	<polygon fill-rule="evenodd" clip-rule="evenodd" fill="#2BB673" points="6.864,3.497 6.819,3.542 6.774,3.587 6.728,3.633 
		6.683,3.678 6.638,3.723 6.592,3.768 6.547,3.814 6.457,3.859 6.411,3.904 6.366,3.95 6.321,3.995 6.276,4.04 6.23,4.085 
		6.185,4.131 6.14,4.176 6.049,4.221 6.004,4.266 5.959,4.312 5.913,4.357 5.868,4.402 5.823,4.448 5.778,4.493 5.687,4.538 
		5.642,4.583 5.597,4.629 5.551,4.674 5.506,4.719 5.461,4.765 5.415,4.81 5.37,4.855 5.28,4.9 5.234,4.946 5.189,4.991 
		5.144,5.036 5.099,5.081 5.053,5.127 5.008,5.172 4.963,5.217 4.872,5.263 4.827,5.308 4.782,5.353 4.736,5.398 4.691,5.444 
		4.646,5.489 4.6,5.534 4.555,5.579 4.465,5.625 4.419,5.67 4.374,5.715 4.329,5.761 4.284,5.806 4.238,5.851 4.193,5.896 
		4.103,5.942 4.057,5.987 4.012,6.032 3.967,6.077 3.922,6.123 3.876,6.168 3.831,6.213 3.786,6.258 3.695,6.304 3.65,6.349 
		3.605,6.394 3.559,6.44 3.514,6.485 3.469,6.53 3.423,6.575 3.378,6.621 3.288,6.666 3.242,6.711 3.197,6.756 3.152,6.802 
		3.107,6.847 3.061,6.892 3.016,6.938 2.971,6.983 2.88,7.028 2.835,7.073 2.79,7.119 2.744,7.164 2.699,7.209 2.654,7.255 
		2.608,7.3 2.563,7.345 2.473,7.39 2.427,7.436 2.382,7.481 2.337,7.526 2.292,7.571 2.246,7.617 2.201,7.662 2.201,13.819 
		2.246,13.91 2.292,13.955 2.337,14 5.506,14 5.551,11.329 5.597,11.193 5.687,11.148 8.313,11.148 8.403,11.193 8.449,11.329 
		8.494,14 11.663,14 11.708,13.955 11.754,13.91 11.799,13.819 11.799,7.662 11.754,7.617 11.708,7.571 11.663,7.526 11.618,7.481 
		11.573,7.436 11.527,7.39 11.482,7.345 11.391,7.3 11.346,7.255 11.301,7.209 11.256,7.164 11.21,7.119 11.165,7.073 11.12,7.028 
		11.029,6.983 10.984,6.938 10.939,6.892 10.894,6.847 10.848,6.802 10.803,6.756 10.758,6.711 10.712,6.666 10.622,6.621 
		10.577,6.575 10.531,6.53 10.486,6.485 10.441,6.44 10.395,6.394 10.35,6.349 10.305,6.304 10.214,6.258 10.169,6.213 
		10.124,6.168 10.079,6.123 10.033,6.077 9.988,6.032 9.943,5.987 9.897,5.942 9.807,5.896 9.762,5.851 9.716,5.806 9.671,5.761 
		9.626,5.715 9.581,5.67 9.535,5.625 9.49,5.579 9.399,5.534 9.354,5.489 9.309,5.444 9.264,5.398 9.218,5.353 9.173,5.308 
		9.128,5.263 9.037,5.217 8.992,5.172 8.947,5.127 8.902,5.081 8.856,5.036 8.811,4.991 8.766,4.946 8.72,4.9 8.63,4.855 
		8.585,4.81 8.539,4.765 8.494,4.719 8.449,4.674 8.403,4.629 8.358,4.583 8.313,4.538 8.222,4.493 8.177,4.448 8.132,4.402 
		8.087,4.357 8.041,4.312 7.996,4.266 7.951,4.221 7.905,4.176 7.815,4.131 7.77,4.085 7.724,4.04 7.679,3.995 7.634,3.95 
		7.589,3.904 7.543,3.859 7.498,3.814 7.407,3.768 7.362,3.723 7.317,3.678 7.272,3.633 7.226,3.587 7.181,3.542 7.136,3.497 
		7.045,3.452 6.955,3.452 	"/>
	<polygon fill-rule="evenodd" clip-rule="evenodd" fill="#2BB673" points="6.864,0.045 6.819,0.091 6.728,0.136 6.683,0.181 
		6.638,0.226 6.592,0.272 6.547,0.317 6.502,0.362 6.457,0.408 6.412,0.453 6.321,0.498 6.276,0.543 6.23,0.589 6.185,0.634 
		6.14,0.679 6.095,0.724 6.049,0.77 6.004,0.815 5.913,0.86 5.868,0.906 5.823,0.951 5.778,0.996 5.732,1.041 5.687,1.087 
		5.642,1.132 5.597,1.177 5.506,1.222 5.461,1.268 5.415,1.313 5.37,1.358 5.325,1.403 5.28,1.449 5.234,1.494 5.144,1.539 
		5.099,1.585 5.053,1.63 5.008,1.675 4.963,1.72 4.917,1.766 4.872,1.811 4.827,1.856 4.736,1.901 4.691,1.947 4.646,1.992 
		4.6,2.037 4.555,2.083 4.51,2.128 4.465,2.173 4.42,2.218 4.329,2.264 4.284,2.309 4.238,2.354 4.193,2.399 4.148,2.445 
		4.103,2.49 4.057,2.535 4.012,2.581 3.922,2.626 3.876,2.671 3.831,2.716 3.786,2.762 3.74,2.807 3.695,2.852 3.65,2.898 
		3.605,2.943 3.514,2.988 3.469,3.033 3.424,3.079 3.378,3.124 3.333,3.169 3.288,3.214 3.242,3.26 3.152,3.305 3.107,3.35 
		3.061,3.395 3.016,3.441 2.971,3.486 2.925,3.531 2.88,3.577 2.835,3.622 2.744,3.667 2.699,3.712 2.654,3.758 2.609,3.803 
		2.563,3.848 2.518,3.893 2.473,3.939 2.427,3.984 2.337,4.029 2.292,4.075 2.246,4.12 2.201,4.165 2.156,4.21 2.111,4.256 
		2.065,4.301 2.02,4.346 1.929,4.391 1.884,4.437 1.839,4.482 1.794,4.527 1.748,4.573 1.703,4.618 1.658,4.663 1.567,4.708 
		1.522,4.754 1.477,4.799 1.432,4.844 1.386,4.889 1.341,4.935 1.296,4.98 1.25,5.025 1.16,5.071 1.115,5.116 1.069,5.161 
		1.024,5.206 0.979,5.252 0.933,5.297 0.888,5.342 0.843,5.387 0.752,5.433 0.707,5.478 0.662,5.523 0.617,5.569 0.571,5.614 
		0.526,5.659 0.481,5.704 0.435,5.75 0.345,5.795 0.3,5.84 0.254,5.885 0.209,5.931 0.209,6.067 0.254,6.112 0.3,6.157 0.345,6.202 
		0.39,6.248 0.435,6.338 0.481,6.383 0.526,6.429 0.571,6.474 0.617,6.519 0.662,6.565 0.707,6.61 0.752,6.655 0.798,6.746 
		0.843,6.791 0.888,6.836 0.933,6.836 0.979,6.791 1.069,6.746 1.115,6.7 1.16,6.655 1.205,6.61 1.25,6.565 1.296,6.519 
		1.341,6.474 1.386,6.429 1.477,6.383 1.522,6.338 1.567,6.293 1.613,6.248 1.658,6.202 1.703,6.157 1.748,6.112 1.839,6.067 
		1.884,6.021 1.929,5.976 1.975,5.931 2.02,5.885 2.065,5.84 2.111,5.795 2.156,5.75 2.246,5.704 2.292,5.659 2.337,5.614 
		2.382,5.569 2.427,5.523 2.473,5.478 2.518,5.433 2.563,5.387 2.654,5.342 2.699,5.297 2.744,5.252 2.79,5.206 2.835,5.161 
		2.88,5.116 2.925,5.071 2.971,5.025 3.061,4.98 3.107,4.935 3.152,4.889 3.197,4.844 3.242,4.799 3.288,4.754 3.333,4.708 
		3.378,4.663 3.469,4.618 3.514,4.573 3.559,4.527 3.605,4.482 3.65,4.437 3.695,4.391 3.74,4.346 3.831,4.301 3.876,4.256 
		3.922,4.21 3.967,4.165 4.012,4.12 4.057,4.075 4.103,4.029 4.148,3.984 4.238,3.939 4.284,3.893 4.329,3.848 4.374,3.803 
		4.42,3.758 4.465,3.712 4.51,3.667 4.555,3.622 4.646,3.577 4.691,3.531 4.736,3.486 4.782,3.441 4.827,3.395 4.872,3.35 
		4.917,3.305 4.963,3.26 5.053,3.214 5.099,3.169 5.144,3.124 5.189,3.079 5.234,3.033 5.28,2.988 5.325,2.943 5.415,2.898 
		5.461,2.852 5.506,2.807 5.551,2.762 5.597,2.716 5.642,2.671 5.687,2.626 5.732,2.581 5.823,2.535 5.868,2.49 5.913,2.445 
		5.959,2.399 6.004,2.354 6.049,2.309 6.095,2.264 6.14,2.218 6.23,2.173 6.276,2.128 6.321,2.083 6.366,2.037 6.412,1.992 
		6.457,1.947 6.502,1.901 6.547,1.856 6.638,1.811 6.683,1.766 6.728,1.72 6.774,1.675 6.819,1.63 6.864,1.585 6.909,1.539 
		6.955,1.494 7.045,1.494 7.091,1.539 7.136,1.585 7.181,1.63 7.226,1.675 7.272,1.72 7.317,1.766 7.362,1.811 7.453,1.856 
		7.498,1.901 7.543,1.947 7.589,1.992 7.634,2.037 7.679,2.083 7.724,2.128 7.77,2.173 7.86,2.218 7.905,2.264 7.951,2.309 
		7.996,2.354 8.041,2.399 8.087,2.445 8.132,2.49 8.222,2.535 8.268,2.581 8.313,2.626 8.358,2.671 8.404,2.716 8.449,2.762 
		8.494,2.807 8.539,2.852 8.63,2.898 8.675,2.943 8.72,2.988 8.766,3.033 8.811,3.079 8.856,3.124 8.902,3.169 8.947,3.214 
		9.037,3.26 9.083,3.305 9.128,3.35 9.173,3.395 9.219,3.441 9.264,3.486 9.309,3.531 9.354,3.577 9.445,3.622 9.49,3.667 
		9.535,3.712 9.581,3.758 9.626,3.803 9.671,3.848 9.716,3.893 9.762,3.939 9.852,3.984 9.898,4.029 9.943,4.075 9.988,4.12 
		10.033,4.165 10.079,4.21 10.124,4.256 10.214,4.301 10.26,4.346 10.305,4.391 10.35,4.437 10.396,4.482 10.441,4.527 
		10.486,4.573 10.531,4.618 10.622,4.663 10.667,4.708 10.712,4.754 10.758,4.799 10.803,4.844 10.848,4.889 10.894,4.935 
		10.939,4.98 11.029,5.025 11.075,5.071 11.12,5.116 11.165,5.161 11.21,5.206 11.256,5.252 11.301,5.297 11.346,5.342 
		11.437,5.387 11.482,5.433 11.527,5.478 11.573,5.523 11.618,5.569 11.663,5.614 11.708,5.659 11.754,5.704 11.844,5.75 
		11.889,5.795 11.935,5.84 11.98,5.885 12.025,5.931 12.071,5.976 12.116,6.021 12.206,6.067 12.252,6.112 12.297,6.157 
		12.342,6.202 12.387,6.248 12.433,6.293 12.478,6.338 12.523,6.383 12.614,6.429 12.659,6.474 12.704,6.519 12.75,6.565 
		12.795,6.61 12.84,6.655 12.886,6.7 12.931,6.746 13.021,6.791 13.067,6.836 13.112,6.836 13.157,6.791 13.202,6.746 13.248,6.655 
		13.293,6.61 13.338,6.565 13.384,6.519 13.429,6.474 13.474,6.429 13.519,6.383 13.565,6.338 13.61,6.248 13.655,6.202 13.7,6.157 
		13.746,6.112 13.791,6.067 13.791,5.931 13.746,5.885 13.7,5.84 13.655,5.795 13.565,5.75 13.519,5.704 13.474,5.659 13.429,5.614 
		13.384,5.569 13.338,5.523 13.293,5.478 13.248,5.433 13.157,5.387 13.112,5.342 13.067,5.297 13.021,5.252 12.976,5.206 
		12.931,5.161 12.886,5.116 12.84,5.071 12.75,5.025 12.704,4.98 12.659,4.935 12.614,4.889 12.569,4.844 12.523,4.799 
		12.478,4.754 12.433,4.708 12.342,4.663 12.297,4.618 12.252,4.573 12.206,4.527 12.161,4.482 12.116,4.437 12.071,4.391 
		11.98,4.346 11.935,4.301 11.889,4.256 11.844,4.21 11.799,4.165 11.754,4.12 11.708,4.075 11.663,4.029 11.573,3.984 
		11.527,3.939 11.482,3.893 11.437,3.848 11.391,3.803 11.346,3.758 11.301,3.712 11.256,3.667 11.165,3.622 11.12,3.577 
		11.075,3.531 11.029,3.486 10.984,3.441 10.939,3.395 10.894,3.35 10.848,3.305 10.758,3.26 10.712,3.214 10.667,3.169 
		10.622,3.124 10.577,3.079 10.531,3.033 10.486,2.988 10.441,2.943 10.35,2.898 10.305,2.852 10.26,2.807 10.214,2.762 
		10.169,2.716 10.124,2.671 10.079,2.626 9.988,2.581 9.943,2.535 9.898,2.49 9.852,2.445 9.807,2.399 9.762,2.354 9.716,2.309 
		9.671,2.264 9.581,2.218 9.535,2.173 9.49,2.128 9.445,2.083 9.399,2.037 9.354,1.992 9.309,1.947 9.264,1.901 9.173,1.856 
		9.128,1.811 9.083,1.766 9.037,1.72 8.992,1.675 8.947,1.63 8.902,1.585 8.856,1.539 8.766,1.494 8.72,1.449 8.675,1.403 
		8.63,1.358 8.585,1.313 8.539,1.268 8.494,1.222 8.404,1.177 8.358,1.132 8.313,1.087 8.268,1.041 8.222,0.996 8.177,0.951 
		8.132,0.906 8.087,0.86 7.996,0.815 7.951,0.77 7.905,0.724 7.86,0.679 7.815,0.634 7.77,0.589 7.724,0.543 7.679,0.498 
		7.589,0.453 7.543,0.408 7.498,0.362 7.453,0.317 7.407,0.272 7.362,0.226 7.317,0.181 7.272,0.136 7.181,0.091 7.136,0.045 
		7.091,0 6.909,0 	"/>
	<polygon fill-rule="evenodd" clip-rule="evenodd" fill="#2BB673" points="2.201,3.441 2.292,3.441 2.337,3.395 2.382,3.35 
		2.427,3.305 2.473,3.26 2.518,3.214 2.563,3.169 2.609,3.124 2.654,3.079 2.744,3.033 2.79,2.988 2.835,2.943 2.88,2.898 
		2.925,2.852 2.971,2.807 3.016,2.762 3.061,2.716 3.107,2.671 3.152,2.626 3.242,2.581 3.288,2.535 3.333,2.49 3.378,2.445 
		3.424,2.399 3.469,2.354 3.514,2.309 3.559,2.264 3.605,2.218 3.695,2.173 3.74,2.128 3.786,2.083 3.831,2.037 3.876,1.992 
		3.922,1.947 3.967,1.901 3.967,0.86 2.201,0.86 	"/>
</g>
</svg>
