<?xml version="1.0" encoding="utf-8"?>
<svg version="1.1" id="Réteg_1" xmlns="http://www.w3.org/2000/svg" xmlns:xlink="http://www.w3.org/1999/xlink" x="0px" y="0px"
	 viewBox="0 0 14 14" enable-background="new 0 0 14 14" xml:space="preserve">
<path fill-rule="evenodd" clip-rule="evenodd" fill="#00A0E3" d="M13.165,3.212l-3.2-2.882c-0.488-0.44-1.25-0.403-1.692,0.083
	L0.309,9.148c-0.442,0.485-0.405,1.242,0.083,1.682l3.2,2.882c0.488,0.44,1.25,0.403,1.692-0.083l7.964-8.735
	C13.691,4.408,13.653,3.652,13.165,3.212L13.165,3.212z M2.408,11.815c-0.263-0.237-0.291-0.632-0.062-0.883
	c0.228-0.251,0.627-0.262,0.89-0.026c0.262,0.236,0.29,0.632,0.062,0.882C3.069,12.04,2.671,12.051,2.408,11.815L2.408,11.815z
	 M12.325,4.518l-6.88,7.547L1.859,8.836l6.88-7.547L12.325,4.518z"/>
</svg>
