<?xml version="1.0" encoding="utf-8"?>
<svg version="1.1" id="Réteg_1" xmlns="http://www.w3.org/2000/svg" xmlns:xlink="http://www.w3.org/1999/xlink" x="0px" y="0px"
	 viewBox="0 0 14 14" enable-background="new 0 0 14 14" xml:space="preserve">
<path fill-rule="evenodd" clip-rule="evenodd" fill="#00A0E3" d="M7.19345,0C10.96591,0,14,3.25653,14,7.03222
	c0,1.94956-1.06747,3.87397-2.05599,4.84716c-1.04997,1.03387-2.7823,2.05599-4.8473,2.05599
	c-1.04708,0-1.88324-0.1566-2.63525-0.46141c-0.59025-0.23921-1.42925-0.86855-1.42925-1.6354v-0.48382
	c0-0.28708,0.41943-0.8646,0.41943-0.87101c0-0.18268-0.16137-0.47505-0.16137-0.87086V9.22567
	c0-0.42767,0.19473-0.88373,0.22586-1.2581l0.06449-0.25791C3.58839,7.7114,3.59576,7.71333,3.60289,7.71525l0.23772-0.78068
	C3.8395,6.92416,3.83897,6.9138,3.83868,6.90314l0.06777-0.18528L3.96767,6.5483c0.00684-0.00053,0.0134-0.0012,0.01957-0.00193
	l0.18456-0.39196c-0.00477-0.00877-0.00834-0.01721-0.01051-0.0254c0.14224-0.61049,1.13837-2.03632,1.49716-2.56738
	C6.14989,2.83407,6.85012,1.871,8.03221,1.871h0.3226c0.20615,0,0.24553,0.06449,0.45167,0.06449
	c0,1.27101-0.30987,1.764-0.74203,2.58064c-0.9314,0-1.06785,0.18745-1.38703,0.80637
	C6.44217,5.77894,6.15769,6.2286,5.90315,6.70967h-0.0268l-0.23131,0.645L5.51814,7.91157
	c-0.00135,0.01899-0.00207,0.0376-0.00207,0.05601V8.4193c0,0.28279,0.289,0.46614,0.38709,0.6129
	c-0.08473,0.36386-0.44758,0.98264-0.6505,1.2526c-0.14604,0.19444-0.73653,0.87631-0.99464,0.87631
	c-0.08907,0-0.3398-0.26929-0.41933-0.32255c-0.10695,0.20205-0.25806,0.37012-0.25806,0.67739
	c0,1.26422,1.76004,1.77426,3.0968,1.77426h0.54841c0.95516,0,1.8255-0.2999,2.47296-0.62384
	c0.38955-0.19487,0.62919-0.34694,0.97237-0.57603c0.33176-0.22133,0.54065-0.47014,0.83206-0.68395
	c0.36728-0.26943,1.06366-1.32312,1.2581-1.80651c0.29565-0.73509,0.52903-1.51905,0.52903-2.53543V6.93539
	c0-1.90079-0.89-3.54905-1.8468-4.50808c-0.97637-0.97849-2.59023-1.78202-4.54027-1.78202
	c-3.34016,0-6.19365,2.67327-6.19365,5.96764v0.51602c0,0.6773,0.13448,1.56985,0.33272,2.05449
	c0.12349,0.30235,0.22162,0.5514,0.38338,0.81004c0.04492,0.07177,0.44526,0.71378,0.44526,0.7161
	c0,0.18007-0.1003,0.35479-0.29035,0.35479c-0.36627,0-1.01377-1.34852-1.16131-1.70963C0.16903,8.74267,0,7.76827,0,6.90314
	c0-2.0169,0.93251-3.78735,1.94354-4.79838C2.9375,1.1108,4.58717,0,6.54845,0H7.19345L7.19345,0z M6.64518,9.83857
	c0-0.28828-0.29295-0.54407-0.48392-0.64515c-0.05181,0.62245-1.05725,1.99791-1.5484,2.12906
	c0.03726,0.13978,0.42391,0.29035,0.6129,0.29035H5.3225c0.53814,0,1.32268-1.07335,1.32268-1.70977V9.83857L6.64518,9.83857z
	 M9.16133,2.06457v0.3547c0,0.91786-0.43601,1.64036-0.80652,2.19355c0.09606,0.04608,0.28597,0.12913,0.41928,0.12913H9.0322
	c0.51303,0,0.87101-1.29781,0.87101-1.9032C9.90321,2.44809,9.48773,2.09165,9.16133,2.06457z"/>
</svg>
