<?xml version="1.0" encoding="utf-8"?>
<svg version="1.1" id="Réteg_1" xmlns="http://www.w3.org/2000/svg" xmlns:xlink="http://www.w3.org/1999/xlink" x="0px" y="0px"
	 viewBox="0 0 14 14" enable-background="new 0 0 14 14" xml:space="preserve">
<path fill="#2BB673" d="M6.816,14.004h0.293c2.027,0,3.886-1.017,4.876-2.054C13.041,10.844,14,9.188,14,7.036
	c0-1.577-0.553-3.102-1.218-4.014C11.949,1.88,11.25,1.288,9.94,0.633c-1.074-0.537-2.936-0.832-4.423-0.48
	C4.076,0.495,2.976,1.087,2.088,1.975C1.268,2.794,0.486,3.97,0.191,5.31c-0.36,1.632-0.195,3.166,0.366,4.472
	c0.555,1.294,1.28,2.105,2.322,2.909C3.718,13.339,5.334,14.004,6.816,14.004L6.816,14.004z M9.94,2.995
	C9.887,2.769,9.577,2.192,9.461,1.971C9.283,1.633,9.066,1.347,8.905,1.043c0.51,0.119,0.839,0.339,1.253,0.525
	c0.169,0.076,0.928,0.619,1.012,0.744C11.086,2.436,10.141,2.949,9.94,2.995L9.94,2.995z M10.193,3.639
	c0.25-0.132,0.537-0.223,0.777-0.375c0.202-0.128,0.527-0.32,0.727-0.426c0.295,0.198,0.868,1.233,1.041,1.634
	c0.229,0.531,0.482,1.429,0.482,2.173h-2.362V6.548c0-0.449-0.157-1.165-0.249-1.547c-0.056-0.229-0.151-0.489-0.199-0.699
	C10.357,4.071,10.245,3.86,10.193,3.639L10.193,3.639z M10.857,7.426V7.368h2.362c0,0.798-0.262,1.602-0.49,2.183
	c-0.149,0.379-0.759,1.423-1.032,1.623c-0.296-0.198-1.145-0.717-1.503-0.801c0.006-0.07,0.196-0.576,0.232-0.685
	c0.069-0.207,0.152-0.485,0.196-0.702C10.722,8.498,10.857,8.014,10.857,7.426L10.857,7.426z M8.905,12.95
	c0.019-0.069,0.468-0.759,0.56-0.943c0.129-0.257,0.391-0.751,0.456-1.027c0.271,0.143,1.107,0.508,1.249,0.703
	c-0.139,0.207-0.771,0.599-1.023,0.753c-0.176,0.108-0.387,0.21-0.589,0.29C9.373,12.797,9.055,12.878,8.905,12.95L8.905,12.95z
	 M7.363,13.243v-2.928c0.274,0,0.777,0.08,1.011,0.141c0.298,0.076,0.625,0.185,0.902,0.249c-0.012,0.149-0.518,1.164-0.613,1.32
	c-0.081,0.132-0.752,1.176-0.753,1.179L7.5,13.251L7.363,13.243L7.363,13.243z M7.363,9.574V7.368h2.772
	c0,0.445-0.12,1.085-0.211,1.448C9.867,9.042,9.815,9.274,9.747,9.478C9.706,9.6,9.557,10.002,9.549,10.1
	c-0.056-0.001-0.88-0.288-1.032-0.334C8.247,9.683,7.71,9.574,7.363,9.574L7.363,9.574z M7.363,4.44c0.286,0,0.918-0.13,1.163-0.204
	c0.182-0.055,0.346-0.099,0.524-0.16c0.112-0.038,0.406-0.175,0.5-0.184c0.001,0.04,0.333,1.126,0.383,1.297
	c0.096,0.326,0.203,1.055,0.203,1.456H7.363V4.44L7.363,4.44z M7.363,3.698V0.75c0.536,0,0.538,0.032,0.754,0.359
	c0.15,0.227,0.303,0.444,0.437,0.676c0.18,0.311,0.662,1.139,0.742,1.483c-0.197,0.105-0.673,0.206-0.921,0.27
	C8.236,3.573,7.389,3.685,7.363,3.698L7.363,3.698z M4.708,10.705c0.291-0.067,0.557-0.168,0.89-0.242
	c0.23-0.05,0.721-0.148,0.964-0.148h0.059v2.928H6.504l-0.429-0.044c-0.014-0.045-0.642-0.975-0.749-1.179
	C5.163,11.709,4.786,11.04,4.708,10.705L4.708,10.705z M4.474,10.1c-0.068,0-0.377-1.113-0.409-1.271
	C3.983,8.413,3.849,7.852,3.849,7.368h2.772v2.147c0,0.082-0.472,0.105-0.564,0.119C5.886,9.661,5.669,9.713,5.501,9.761
	C5.308,9.816,5.16,9.865,4.974,9.917C4.885,9.942,4.505,10.1,4.474,10.1L4.474,10.1z M3.849,6.645c0-0.761,0.359-2.24,0.605-2.753
	c0.11,0.026,0.369,0.133,0.5,0.184c0.178,0.07,0.334,0.101,0.527,0.156C5.754,4.31,6.301,4.44,6.621,4.44v2.206L3.849,6.645
	L3.849,6.645z M4.688,3.268C4.765,2.941,5.26,2.097,5.437,1.792c0.135-0.234,0.278-0.464,0.435-0.678
	c0.241-0.328,0.17-0.363,0.75-0.363v2.928H6.523C6.092,3.679,4.98,3.408,4.688,3.268L4.688,3.268z M2.815,11.662
	c0.028-0.008,0.523-0.322,0.605-0.37c0.116-0.068,0.538-0.284,0.663-0.313c0.004,0.165,0.359,0.873,0.442,1.041
	c0.165,0.331,0.398,0.618,0.553,0.911C4.612,12.931,2.89,11.944,2.815,11.662L2.815,11.662z M2.268,11.174
	c-0.002-0.008-0.493-0.673-0.559-0.769c-0.145-0.216-0.366-0.622-0.454-0.873C1.035,8.896,0.765,8.228,0.765,7.368h2.362v0.078
	c0,0.526,0.14,1.105,0.242,1.554c0.061,0.264,0.13,0.453,0.199,0.699c0.047,0.169,0.212,0.556,0.222,0.675
	c-0.121,0.028-0.682,0.303-0.8,0.371C2.896,10.8,2.308,11.163,2.268,11.174L2.268,11.174z M0.765,6.645
	c0-0.783,0.265-1.612,0.491-2.183c0.113-0.287,0.302-0.636,0.466-0.881c0.069-0.105,0.497-0.742,0.585-0.742
	c0.021,0,0.625,0.386,0.715,0.437c0.251,0.138,0.521,0.233,0.768,0.364C3.752,3.807,3.635,4.164,3.568,4.334
	c-0.078,0.197-0.14,0.483-0.195,0.703c-0.099,0.392-0.246,1.097-0.246,1.55v0.059H0.765L0.765,6.645z M2.815,2.312
	C2.921,2.153,3.63,1.687,3.843,1.564c0.327-0.19,0.83-0.426,1.236-0.521C5.062,1.105,4.609,1.808,4.52,1.987
	c-0.085,0.17-0.159,0.319-0.248,0.494C4.187,2.65,4.128,2.838,4.045,2.995C3.848,2.949,2.896,2.433,2.815,2.312z"/>
</svg>
