<?xml version="1.0" encoding="utf-8"?>
<svg version="1.1" id="Réteg_1" xmlns="http://www.w3.org/2000/svg" xmlns:xlink="http://www.w3.org/1999/xlink" x="0px" y="0px"
	 viewBox="0 0 14 14" enable-background="new 0 0 14 14" xml:space="preserve">
<path fill-rule="evenodd" clip-rule="evenodd" fill="#00A0E3" d="M6.81635,14.00432h0.29288
	c2.02653,0,3.88584-1.01656,4.87569-2.05382C13.04075,10.84433,14,9.18758,14,7.03592c0-1.57682-0.55342-3.10205-1.21806-4.01385
	c-0.83292-1.14202-1.53216-1.73365-2.84213-2.38886c-1.07373-0.5372-2.93607-0.83239-4.42309-0.47989
	C4.0759,0.49477,2.97618,1.08707,2.08758,1.975C1.26842,2.79402,0.48578,3.9703,0.19059,5.30973
	c-0.36001,1.63192-0.19452,3.16591,0.36588,4.47232c0.5552,1.29428,1.2798,2.10473,2.32172,2.90946
	C3.71757,13.33915,5.3338,14.00432,6.81635,14.00432L6.81635,14.00432z M9.93981,2.99493
	c-0.0527-0.22628-0.36232-0.80289-0.47869-1.02402C9.28336,1.63342,9.06579,1.34694,8.90482,1.04299
	c0.50992,0.11867,0.83937,0.33927,1.25271,0.52455c0.16901,0.0757,0.92787,0.61877,1.01175,0.74438
	C11.08592,2.43632,10.14073,2.94859,9.93981,2.99493L9.93981,2.99493z M10.19337,3.63921
	c0.25005-0.13205,0.53653-0.22286,0.77676-0.37459c0.20202-0.12782,0.52681-0.32002,0.72652-0.42599
	c0.29519,0.19793,0.86772,1.23302,1.04082,1.63356c0.22863,0.53143,0.48157,1.42917,0.48157,2.17307h-2.36176V6.54795
	c0-0.44919-0.15683-1.16522-0.24947-1.54664c-0.05553-0.22931-0.15101-0.48918-0.19851-0.69924
	C10.35723,4.07098,10.24482,3.86034,10.19337,3.63921L10.19337,3.63921z M10.85729,7.42606V7.36769h2.36176
	c0,0.79813-0.26223,1.6016-0.49028,2.18342c-0.14885,0.37854-0.75886,1.42282-1.03211,1.62321
	c-0.29577-0.19808-1.14505-0.71728-1.50329-0.80063c0.00573-0.07012,0.19562-0.57594,0.23205-0.68533
	c0.06886-0.20722,0.15222-0.48509,0.1963-0.70159C10.72187,8.49816,10.85729,8.0136,10.85729,7.42606L10.85729,7.42606z
	 M8.90482,12.95012c0.01858-0.06944,0.46776-0.75939,0.55973-0.94342c0.12916-0.25703,0.39134-0.75082,0.45559-1.02749
	c0.27094,0.14297,1.10742,0.50814,1.24914,0.70265c-0.13884,0.20722-0.77099,0.59914-1.02282,0.75313
	c-0.17599,0.10818-0.38672,0.20953-0.58932,0.28951C9.37258,12.79733,9.0553,12.87837,8.90482,12.95012L8.90482,12.95012z
	 M7.36265,13.24315v-2.92798c0.2745,0,0.77691,0.08046,1.01137,0.14076c0.29808,0.07575,0.6245,0.18513,0.90184,0.24938
	c-0.01213,0.14885-0.51752,1.16416-0.61305,1.31979c-0.08099,0.13205-0.75246,1.17576-0.75313,1.17917l-0.40924,0.04639
	L7.36265,13.24315L7.36265,13.24315z M7.36265,9.57377V7.36769h2.77221c0,0.44457-0.11978,1.08475-0.21064,1.44828
	c-0.05674,0.2258-0.10886,0.45852-0.17719,0.66218c-0.04105,0.12151-0.1899,0.52397-0.19793,0.62229
	C9.49346,10.09937,8.66867,9.81275,8.51699,9.7665C8.24716,9.68315,7.70996,9.57377,7.36265,9.57377L7.36265,9.57377z
	 M7.36265,4.4397c0.28609,0,0.9181-0.1296,1.16296-0.20366C8.70741,4.18108,8.87127,4.137,9.04957,4.07632
	C9.16184,4.03811,9.45525,3.90086,9.5491,3.89268C9.5502,3.93267,9.88197,5.01863,9.93173,5.18942
	c0.09552,0.32589,0.20313,1.0553,0.20313,1.45584H7.36265V4.4397L7.36265,4.4397z M7.36265,3.69763V0.75011
	c0.53557,0,0.53788,0.03234,0.75371,0.35948c0.14991,0.22685,0.30337,0.44399,0.43706,0.67551
	c0.18008,0.31141,0.6616,1.13918,0.74207,1.48307C9.09866,3.37294,8.62233,3.47415,8.37401,3.53786
	C8.23556,3.57319,7.3894,3.68493,7.36265,3.69763L7.36265,3.69763z M4.70805,10.7053
	c0.29057-0.06713,0.55684-0.16834,0.89024-0.24187c0.23042-0.05034,0.72137-0.14827,0.96445-0.14827h0.05852v2.92798H6.50422
	l-0.42888-0.04408c-0.01391-0.04461-0.64197-0.97532-0.74904-1.17912C5.16301,11.70916,4.7862,11.03995,4.70805,10.7053
	L4.70805,10.7053z M4.47427,10.10043c-0.06838,0-0.37748-1.1131-0.40871-1.27056C3.98331,8.41303,3.84905,7.85152,3.84905,7.36769
	h2.77221v2.14699c0,0.08215-0.47238,0.10476-0.56449,0.11925C5.88597,9.66107,5.66894,9.71261,5.5005,9.76063
	C5.30772,9.81631,5.1596,9.86487,4.97379,9.91699C4.88457,9.94182,4.50492,10.10043,4.47427,10.10043L4.47427,10.10043z
	 M3.84905,6.64525c0-0.76064,0.35948-2.23967,0.60544-2.75257c0.11006,0.02608,0.36872,0.13258,0.49952,0.18364
	c0.1783,0.06997,0.33407,0.1012,0.52739,0.15616C5.75354,4.3101,6.30109,4.4397,6.62125,4.4397v2.20555H3.84905L3.84905,6.64525z
	 M4.68842,3.26818c0.07637-0.32767,0.57128-1.17167,0.74837-1.47667c0.13547-0.23393,0.27787-0.4642,0.43475-0.67849
	c0.24091-0.32753,0.17026-0.3629,0.74972-0.3629v2.92842H6.52332C6.09214,3.67853,4.98005,3.40827,4.68842,3.26818L4.68842,3.26818z
	 M2.81463,11.66224c0.02839-0.00751,0.5233-0.32248,0.6054-0.3705c0.11636-0.06766,0.53846-0.28359,0.66338-0.31251
	c0.00356,0.16492,0.35891,0.87344,0.44226,1.04072c0.16506,0.33119,0.39832,0.61767,0.55342,0.91108
	C4.61205,12.93102,2.8898,11.94352,2.81463,11.66224L2.81463,11.66224z M2.26818,11.17431
	c-0.00231-0.00765-0.49317-0.67267-0.55862-0.7694C1.56428,10.18845,1.34315,9.7833,1.25571,9.53147
	C1.03511,8.89648,0.7649,8.22843,0.7649,7.36769h2.36224v0.07815c0,0.52561,0.13956,1.10497,0.24201,1.55362
	C3.42989,9.26395,3.49943,9.45274,3.56834,9.6987c0.04678,0.16901,0.21237,0.55578,0.22219,0.67498
	c-0.12098,0.02839-0.68244,0.3027-0.79991,0.37103C2.8962,10.80025,2.30813,11.16324,2.26818,11.17431L2.26818,11.17431z
	 M0.7649,6.64525c0-0.78263,0.26506-1.61214,0.49081-2.18347c0.11348-0.28715,0.30217-0.63624,0.46598-0.8811
	c0.06944-0.10476,0.49721-0.74207,0.58523-0.74207c0.02084,0,0.62464,0.38619,0.71545,0.43653
	c0.25077,0.13831,0.52099,0.23326,0.76815,0.36406c-0.03874,0.16781-0.1551,0.5244-0.22219,0.69519
	C3.49072,4.53123,3.42825,4.81713,3.37325,5.0372c-0.09904,0.39192-0.2461,1.09688-0.2461,1.54953v0.05852H0.7649L0.7649,6.64525z
	 M2.81463,2.31192c0.10655-0.15919,0.81565-0.62464,1.02802-0.74794c0.32714-0.1899,0.83008-0.42604,1.23644-0.52099
	C5.06234,1.10493,4.60901,1.8083,4.51994,1.9866C4.43481,2.15614,4.36074,2.30604,4.2722,2.48093
	c-0.08508,0.16901-0.14418,0.3566-0.22753,0.51401C3.84837,2.94926,2.89567,2.4328,2.81463,2.31192z"/>
</svg>
