<?xml version="1.0" encoding="utf-8"?>
<svg version="1.1" id="Réteg_1" xmlns="http://www.w3.org/2000/svg" xmlns:xlink="http://www.w3.org/1999/xlink" x="0px" y="0px"
	 viewBox="0 0 14 14" enable-background="new 0 0 14 14" xml:space="preserve">
<g>
	<path fill-rule="evenodd" clip-rule="evenodd" fill="#565656" d="M1,3h12.267v7.594H1V3L1,3z M1,10.594L4.701,6.01L1,10.594
		L1,10.594z M13.267,10.594L9.566,6.009L13.267,10.594L13.267,10.594z M7.558,7.994L1.425,3.005L7.558,7.994L7.558,7.994z M13.267,3
		L7.133,7.988L13.267,3z"/>
	
		<path fill-rule="evenodd" clip-rule="evenodd" fill="none" stroke="#FFFFFF" stroke-width="0.5669" stroke-miterlimit="22.9256" d="
		M1,3h12.267v7.594H1V3L1,3z M1,10.594L4.701,6.01 M13.267,10.594L9.566,6.009 M7.558,7.994L1.425,3.005L7.558,7.994L7.558,7.994z
		 M13.267,3L7.133,7.988L13.267,3z"/>
</g>
</svg>
