<svg id="Réteg_1" data-name="Réteg 1" xmlns="http://www.w3.org/2000/svg" viewBox="0 0 200 200"><defs><style>.cls-1{fill:#00a0e3;}.cls-2{fill:#fff;}</style></defs><title>user</title><rect class="cls-1" width="200" height="200"/><path class="cls-2" d="M100,66.45A11.55,11.55,0,1,1,88.45,78,11.55,11.55,0,0,1,100,66.45m0,49c16.07,0,33,8,33,11.55v6H67v-6c0-3.52,16.93-11.55,33-11.55M100,56a22,22,0,1,0,22,22A22,22,0,0,0,100,56Zm0,49.5c-14.69,0-44,7.37-44,22V144h88V127.5C144,112.87,114.69,105.5,100,105.5Z"/></svg>