<svg id="Réteg_1" data-name="Réteg 1" xmlns="http://www.w3.org/2000/svg" viewBox="0 0 222.98 78.52"><defs><style>.cls-1{fill:#fff;fill-rule:evenodd;}</style></defs><title>logo</title><path class="cls-1" d="M853.26,551a26,26,0,0,0,1.47,6.67,27.42,27.42,0,0,0,2.3,4.83L853.25,565a31.25,31.25,0,0,1-2.77-5.77,30.66,30.66,0,0,1-1.74-7.82,46,46,0,0,1-.07-6.34l4.54-.08a40.31,40.31,0,0,0,0,6Zm8.43,17.24a25.58,25.58,0,0,0,2.81,2.27,23.57,23.57,0,0,0,13.84,4.33l-.94,4.52a28,28,0,0,1-15.49-5.15,29.06,29.06,0,0,1-3.35-2.72l3.13-3.25Zm23.54,5.51c.45-.13.9-.28,1.36-.45a24.75,24.75,0,0,0,9-5.67,25.08,25.08,0,0,0,2.48-2.85l2.61,4q-.92,1.1-1.92,2.1a29.45,29.45,0,0,1-10.62,6.7c-.94.34-1.88.63-2.81.87l-.09-4.68ZM900.88,560c.2-.43.39-.88.56-1.33a31,31,0,0,0,1.92-10.39l4.49.93a35.1,35.1,0,0,1-2.19,11.09,29.11,29.11,0,0,1-1.35,3l-3.43-3.3Zm2.36-16c-.06-.85-.15-1.71-.26-2.56a57.92,57.92,0,0,0-1.65-8l3.95-2.59a62.37,62.37,0,0,1,2.18,10c.13,1,.23,2,.31,3l-4.53.09Zm-3.46-15.35a64,64,0,0,0-3.31-7.48c-1.08-2-2-3.63-2.89-5.06a33.07,33.07,0,0,0-2.38-3.21l1.15-5.56c.39.42.77.85,1.15,1.29l.2.22a40.13,40.13,0,0,1,3.67,4.8c1,1.59,2,3.28,3.1,5.42,1,1.88,1.92,3.89,2.77,6l-3.46,3.59Zm-50.09,8.44a69.85,69.85,0,0,1,3.89-12.81,64.44,64.44,0,0,1,3.23-6.74l3.38,3.25c-.88,1.66-1.69,3.41-2.43,5.2a64.51,64.51,0,0,0-3.64,12l-4.43-.92ZM862,509.81a30.73,30.73,0,0,1,6.55-6.11,17.41,17.41,0,0,1,7.13-2.68,18,18,0,0,1,7.63.54l.54.16.1,4.87a14.82,14.82,0,0,0-1.92-.69,13.48,13.48,0,0,0-5.72-.4,12.91,12.91,0,0,0-5.27,2,27.6,27.6,0,0,0-6.43,6.3Z" transform="translate(-848.59 -500.83)"/><path class="cls-1" d="M859.4,555.16a23.31,23.31,0,0,1-1.47-6.44,32.74,32.74,0,0,1-.07-3.85l24.6-.47v0a2.14,2.14,0,0,1,0-.45l-24-5a49.77,49.77,0,0,1,2.6-9.17,46.64,46.64,0,0,1,2.59-5.57l19.37,18.65a2.3,2.3,0,0,1,.38-.32l-15.8-24.08a19.51,19.51,0,0,1,3.53-3.28,12.41,12.41,0,0,1,10.74-1.66,14.49,14.49,0,0,1,2.16.87l.54,27.79h0a2.3,2.3,0,0,1,.45.05l4.7-22.65a25.06,25.06,0,0,1,2,2.88c.69,1.15,1.23,2.24,1.94,3.67a50.28,50.28,0,0,1,2.54,6.17l-10.11,10.5a2,2,0,0,1,.32.38L897.38,536a44.05,44.05,0,0,1,1,5.32q.17,1.38.24,2.76l-11.74.22v.05a2.12,2.12,0,0,1,0,.44l11.8,2.45a26.19,26.19,0,0,1-1.48,7.83q-.17.48-.36.93l-10.53-10.13a2.24,2.24,0,0,1-.37.32l8.9,13.58a21.13,21.13,0,0,1-2.35,3,20.17,20.17,0,0,1-7.32,4.9l-.4-21.07h0a2.14,2.14,0,0,1-.45,0l-4.65,22.39a18.61,18.61,0,0,1-12.4-3.53c-.53-.38-1-.79-1.55-1.23l17.52-18.2a2.38,2.38,0,0,1-.32-.38L861.6,559.49A23.5,23.5,0,0,1,859.4,555.16Z" transform="translate(-848.59 -500.83)"/><path class="cls-1" d="M951.27,523.52q0,7.11-4,10.9t-11.7,3.79h-8.16V516.34l10.55-6.92a14.43,14.43,0,0,1,9.46,3.69q3.9,3.72,3.9,10.41Zm-6.35.15q0-9.28-8.2-9.29h-3.25v18.78h2.63q8.82,0,8.82-9.49Zm12.33,14.54V509.38h6.11v28.83Zm13.37,0V509.38h6.11v23.78h11.7l-1.91,5.05Zm40.47,0-2.1-6.87H998.48l-2.09,6.87H989.8l10.18-29h7.47l10.22,29Zm-3.56-12q-2.89-9.33-3.26-10.56c-.24-.81-.42-1.46-.52-1.93q-.66,2.52-3.73,12.49Zm25.2-12.16a6.21,6.21,0,0,0-5.34,2.59,12.09,12.09,0,0,0-1.9,7.23q0,9.64,7.24,9.64a22.68,22.68,0,0,0,7.35-1.52v5.13a20.32,20.32,0,0,1-7.92,1.48q-6.3,0-9.62-3.81t-3.33-11a17.88,17.88,0,0,1,1.63-7.87,11.81,11.81,0,0,1,4.7-5.19,13.86,13.86,0,0,1,7.19-1.81,19.27,19.27,0,0,1,8.43,2l-2,5c-1.08-.51-2.16-1-3.25-1.34a9.71,9.71,0,0,0-3.21-.57Zm38.84,9.7c0,4.78-1.17,8.45-3.54,11s-5.76,3.84-10.18,3.84-7.8-1.28-10.17-3.84-3.55-6.25-3.55-11,1.18-8.47,3.56-11,5.77-3.8,10.2-3.8,7.82,1.27,10.16,3.83,3.52,6.21,3.52,11Zm-21,0q0,4.83,1.83,7.28a6.41,6.41,0,0,0,5.48,2.44q7.32,0,7.32-9.72t-7.28-9.74a6.46,6.46,0,0,0-5.5,2.46Q1050.55,518.92,1050.54,523.76Z" transform="translate(-848.59 -500.83)"/><path class="cls-1" d="M927.6,571.09v-24h1.68v22.44h11.45v1.58Zm17.41,0v-24h1.67v24Zm18-12.11h8.85v11a19.77,19.77,0,0,1-7.83,1.48c-3.79,0-6.69-1.07-8.72-3.21s-3-5.17-3-9.1a13.59,13.59,0,0,1,1.51-6.5,10.5,10.5,0,0,1,4.3-4.38,13.1,13.1,0,0,1,6.43-1.54,16.78,16.78,0,0,1,7,1.42l-.67,1.51a15.15,15.15,0,0,0-6.47-1.45,9.9,9.9,0,0,0-7.54,2.94,11.05,11.05,0,0,0-2.78,7.92q0,5.43,2.64,8.17c1.76,1.82,4.36,2.74,7.77,2.74a15,15,0,0,0,5.64-.94v-8.45h-7.15V559Zm32.41,12.11h-1.69V559.28h-14v11.81h-1.67v-24h1.67v10.66h14V547.07h1.69v24Zm13.2,0H1007V548.65h-7.81v-1.58h17.31v1.58h-7.81v22.44Zm11.51,0v-24h1.67v24Zm26.06,0h-1.69l-14.22-21.32h-.14c.14,2.54.2,4.45.2,5.74v15.58h-1.61v-24h1.68l14.2,21.3h.1c-.1-2-.14-3.85-.14-5.63V547.07h1.62v24ZM1062.63,559h8.85v11a19.82,19.82,0,0,1-7.84,1.48c-3.78,0-6.69-1.07-8.71-3.21s-3-5.17-3-9.1a13.7,13.7,0,0,1,1.5-6.5,10.61,10.61,0,0,1,4.3-4.38,13.11,13.11,0,0,1,6.44-1.54,16.77,16.77,0,0,1,7,1.42l-.67,1.51a15.15,15.15,0,0,0-6.47-1.45,9.87,9.87,0,0,0-7.53,2.94,11,11,0,0,0-2.79,7.92q0,5.43,2.65,8.17c1.76,1.82,4.35,2.74,7.77,2.74a14.94,14.94,0,0,0,5.63-.94v-8.45h-7.14Z" transform="translate(-848.59 -500.83)"/></svg>